<svg xmlns="http://www.w3.org/2000/svg" width="12" height="13" viewBox="0 0 12 13" fill="none">
<path d="M2 0C0.896875 0 0 0.728569 0 1.62468V7.71724H5.69063L4.72188 6.93029C4.42813 6.69166 4.42813 6.3058 4.72188 6.06971C5.01562 5.83363 5.49062 5.83109 5.78125 6.06971L8.03125 7.89748C8.325 8.13611 8.325 8.52197 8.03125 8.75806L5.78125 10.5858C5.4875 10.8244 5.0125 10.8244 4.72188 10.5858C4.43125 10.3472 4.42813 9.96134 4.72188 9.72525L5.69063 8.93829H0V11.3753C0 12.2714 0.896875 13 2 13H10C11.1031 13 12 12.2714 12 11.3753V4.3308C12 3.89924 11.7906 3.48545 11.4156 3.18082L8.08438 0.474712C7.70938 0.170084 7.20312 0 6.67188 0H2ZM10.1719 4.46788H7.25C6.83437 4.46788 6.5 4.19625 6.5 3.85862V1.48506L10.1719 4.46788Z" fill="#9EA0A2"/>
</svg>